<?xml version="1.0" encoding="utf-8"?>
<!-- Generator: Adobe Illustrator 22.0.1, SVG Export Plug-In . SVG Version: 6.00 Build 0)  -->
<svg version="1.1" id="Layer_1" xmlns="http://www.w3.org/2000/svg" xmlns:xlink="http://www.w3.org/1999/xlink" x="0px" y="0px"
	 viewBox="0 0 24 24" style="enable-background:new 0 0 24 24;" xml:space="preserve">
<style type="text/css">
	.st0{fill:#231F20;}
	.st1{fill:none;stroke:#231F20;stroke-miterlimit:10;}
	.st2{fill:none;stroke:#FFFFFF;stroke-miterlimit:10;}
	.st3{fill:none;stroke:#00AEEF;stroke-width:2;stroke-miterlimit:10;}
	.st4{fill:none;stroke:#BE1E2D;stroke-width:2;stroke-miterlimit:10;}
	.st5{fill:#231F20;stroke:#231F20;stroke-miterlimit:10;}
	.st6{fill:#FFFFFF;stroke:#FFFFFF;stroke-miterlimit:10;}
	.st7{fill:none;stroke:#231F20;stroke-width:2;stroke-miterlimit:10;}
	.st8{fill:#FFFFFF;stroke:#231F20;stroke-miterlimit:10;}
	.st9{fill:none;stroke:#BE1E2D;stroke-miterlimit:10;}
	.st10{fill:none;stroke:#00AEEF;stroke-miterlimit:10;}
</style>
<line class="st3" x1="15" y1="8" x2="22" y2="8"/>
<polyline class="st3" points="18,5 15,8 18,11 "/>
<line class="st4" x1="21" y1="15" x2="14" y2="15"/>
<polyline class="st4" points="18,18 21,15 18,12 "/>
<path class="st1" d="M20,5c0-1.7-1.4-3-3-3H5C3.3,2,2,3.3,2,5v14c0,1.6,1.3,3,3,3h12c1.6,0,3-1.4,3-3"/>
<g>
	<path d="M10.3,10.9h2.2v1.7h-2.2l1.6,1.6l-1.2,1.2l-1.6-1.6v2.2H7.4v-2.2l-1.6,1.6l-1.2-1.2l1.6-1.6H3.9v-1.7h2.2L4.5,9.3l1.2-1.2
		l1.6,1.6V7.4h1.7v2.2l1.6-1.6l1.2,1.2L10.3,10.9z"/>
</g>
</svg>
