<?xml version="1.0" encoding="utf-8"?>
<!-- Generator: Adobe Illustrator 22.0.1, SVG Export Plug-In . SVG Version: 6.00 Build 0)  -->
<svg version="1.1" id="Layer_1" xmlns="http://www.w3.org/2000/svg" xmlns:xlink="http://www.w3.org/1999/xlink" x="0px" y="0px"
	 viewBox="0 0 24 24" style="enable-background:new 0 0 24 24;" xml:space="preserve">
<style type="text/css">
	.st0{fill:#231F20;}
	.st1{fill:none;stroke:#231F20;stroke-miterlimit:10;}
	.st2{fill:none;stroke:#FFFFFF;stroke-miterlimit:10;}
	.st3{fill:none;stroke:#00AEEF;stroke-width:2;stroke-miterlimit:10;}
	.st4{fill:none;stroke:#BE1E2D;stroke-width:2;stroke-miterlimit:10;}
	.st5{fill:#231F20;stroke:#231F20;stroke-miterlimit:10;}
	.st6{fill:#FFFFFF;stroke:#FFFFFF;stroke-miterlimit:10;}
	.st7{fill:none;stroke:#231F20;stroke-width:2;stroke-miterlimit:10;}
	.st8{fill:#FFFFFF;stroke:#231F20;stroke-miterlimit:10;}
	.st9{fill:none;stroke:#BE1E2D;stroke-miterlimit:10;}
	.st10{fill:none;stroke:#00AEEF;stroke-miterlimit:10;}
</style>
<polyline class="st9" points="19.5,13.5 17.5,16.5 17.5,17.5 17.5,18.5 20.5,18.5 "/>
<line class="st9" x1="19.5" y1="17.5" x2="19.5" y2="18.5"/>
<polyline class="st10" points="19.5,4.5 19.5,6.5 19.5,7.5 20.5,7.5 20.5,10.5 17.5,10.5 "/>
<path class="st1" d="M19,19.5H5c-1.7,0-3-1.4-3-3v-9c0-1.7,1.3-3,3-3h14c1.6,0,3,1.3,3,3v9C22,18.1,20.6,19.5,19,19.5z"/>
<line class="st1" x1="8.5" y1="4.5" x2="8.5" y2="19.5"/>
<line class="st1" x1="15.5" y1="4.5" x2="15.5" y2="19.5"/>
<polyline class="st1" points="10.5,9.5 13.5,9.5 13.5,11.5 10.5,12.5 10.5,14.5 13.5,14.5 "/>
<line class="st10" x1="19.5" y1="7.5" x2="17.5" y2="7.5"/>
<line class="st1" x1="4.5" y1="14.5" x2="6.5" y2="14.5"/>
<polyline class="st1" points="4.5,9.5 5.5,9.5 5.5,14.5 "/>
</svg>
