<?xml version="1.0" encoding="utf-8"?>
<!-- Generator: Adobe Illustrator 22.0.1, SVG Export Plug-In . SVG Version: 6.00 Build 0)  -->
<svg version="1.1" id="Layer_1" xmlns="http://www.w3.org/2000/svg" xmlns:xlink="http://www.w3.org/1999/xlink" x="0px" y="0px"
	 viewBox="0 0 24 24" style="enable-background:new 0 0 24 24;" xml:space="preserve">
<style type="text/css">
	.st0{fill:#231F20;}
	.st1{fill:none;stroke:#231F20;stroke-miterlimit:10;}
	.st2{fill:none;stroke:#FFFFFF;stroke-miterlimit:10;}
	.st3{fill:none;stroke:#00AEEF;stroke-width:2;stroke-miterlimit:10;}
	.st4{fill:none;stroke:#BE1E2D;stroke-width:2;stroke-miterlimit:10;}
	.st5{fill:#231F20;stroke:#231F20;stroke-miterlimit:10;}
	.st6{fill:#FFFFFF;stroke:#FFFFFF;stroke-miterlimit:10;}
	.st7{fill:none;stroke:#231F20;stroke-width:2;stroke-miterlimit:10;}
	.st8{fill:#FFFFFF;stroke:#231F20;stroke-miterlimit:10;}
	.st9{fill:none;stroke:#BE1E2D;stroke-miterlimit:10;}
	.st10{fill:none;stroke:#00AEEF;stroke-miterlimit:10;}
</style>
<g id="XMLID_1_">
	<g>
		<path class="st0" d="M11.5,4.5v15H5c-1.7,0-3-1.4-3-3v-9c0-1.7,1.3-3,3-3H11.5z"/>
	</g>
	<g>
		<path class="st1" d="M11.5,4.5H19c1.6,0,3,1.3,3,3v9c0,1.6-1.4,3-3,3h-7.5H5c-1.7,0-3-1.4-3-3v-9c0-1.7,1.3-3,3-3H11.5z"/>
		<line class="st1" x1="11.5" y1="4.5" x2="11.5" y2="19.5"/>
	</g>
</g>
<rect x="4.5" y="9.5" class="st2" width="4" height="5"/>
<line class="st1" x1="16.5" y1="14.5" x2="18.5" y2="14.5"/>
<polyline class="st1" points="16.5,9.5 17.5,9.5 17.5,14.5 "/>
</svg>
