<?xml version="1.0" encoding="utf-8"?>
<!-- Generator: Adobe Illustrator 22.0.1, SVG Export Plug-In . SVG Version: 6.00 Build 0)  -->
<svg version="1.1" id="Layer_1" xmlns="http://www.w3.org/2000/svg" xmlns:xlink="http://www.w3.org/1999/xlink" x="0px" y="0px"
	 viewBox="0 0 24 24" style="enable-background:new 0 0 24 24;" xml:space="preserve">
<style type="text/css">
	.st0{fill:#231F20;}
	.st1{fill:none;stroke:#231F20;stroke-miterlimit:10;}
	.st2{fill:none;stroke:#FFFFFF;stroke-miterlimit:10;}
	.st3{fill:none;stroke:#00AEEF;stroke-width:2;stroke-miterlimit:10;}
	.st4{fill:none;stroke:#BE1E2D;stroke-width:2;stroke-miterlimit:10;}
	.st5{fill:#231F20;stroke:#231F20;stroke-miterlimit:10;}
	.st6{fill:#FFFFFF;stroke:#FFFFFF;stroke-miterlimit:10;}
	.st7{fill:none;stroke:#231F20;stroke-width:2;stroke-miterlimit:10;}
	.st8{fill:#FFFFFF;stroke:#231F20;stroke-miterlimit:10;}
	.st9{fill:none;stroke:#BE1E2D;stroke-miterlimit:10;}
	.st10{fill:none;stroke:#00AEEF;stroke-miterlimit:10;}
</style>
<polyline class="st3" points="8,15 11,12 8,9 "/>
<polyline class="st4" points="3,15 6,12 3,9 "/>
<polyline class="st3" points="18,15 21,12 18,9 "/>
<polyline class="st4" points="13,15 16,12 13,9 "/>
<path class="st1" d="M22,17v2c0,1.6-1.4,3-3,3H5c-1.7,0-3-1.4-3-3v-2"/>
<path class="st1" d="M2,7V5c0-1.7,1.3-3,3-3h14c1.6,0,3,1.3,3,3v2"/>
</svg>
