<?xml version="1.0" encoding="utf-8"?>
<!-- Generator: Adobe Illustrator 22.0.1, SVG Export Plug-In . SVG Version: 6.00 Build 0)  -->
<svg version="1.1" id="Layer_1" xmlns="http://www.w3.org/2000/svg" xmlns:xlink="http://www.w3.org/1999/xlink" x="0px" y="0px"
	 viewBox="0 0 24 24" style="enable-background:new 0 0 24 24;" xml:space="preserve">
<style type="text/css">
	.st0{fill:#231F20;}
	.st1{fill:none;stroke:#231F20;stroke-miterlimit:10;}
	.st2{fill:none;stroke:#FFFFFF;stroke-miterlimit:10;}
	.st3{fill:none;stroke:#00AEEF;stroke-width:2;stroke-miterlimit:10;}
	.st4{fill:none;stroke:#BE1E2D;stroke-width:2;stroke-miterlimit:10;}
	.st5{fill:#231F20;stroke:#231F20;stroke-miterlimit:10;}
	.st6{fill:#FFFFFF;stroke:#FFFFFF;stroke-miterlimit:10;}
	.st7{fill:none;stroke:#231F20;stroke-width:2;stroke-miterlimit:10;}
	.st8{fill:#FFFFFF;stroke:#231F20;stroke-miterlimit:10;}
	.st9{fill:none;stroke:#BE1E2D;stroke-miterlimit:10;}
	.st10{fill:none;stroke:#00AEEF;stroke-miterlimit:10;}
</style>
<path class="st1" d="M19,22H5c-1.7,0-3-1.4-3-3V5c0-1.7,1.3-3,3-3h14c1.6,0,3,1.3,3,3v14C22,20.6,20.6,22,19,22z"/>
<line class="st1" x1="8" y1="16" x2="17" y2="7"/>
<polygon class="st10" points="16,6.6 18.5,5.9 17.8,8.3 "/>
<line class="st1" x1="9.5" y1="14.5" x2="9.5" y2="9.5"/>
<line class="st1" x1="11.5" y1="12.5" x2="15.5" y2="12.5"/>
<rect x="15.5" y="11.5" class="st9" width="2" height="2"/>
<circle class="st9" cx="9.5" cy="8.5" r="1"/>
<circle class="st3" cx="6.5" cy="17.5" r="1.5"/>
</svg>
